<?xml version="1.0" encoding="utf-8" standalone="no"?>
<!DOCTYPE svg PUBLIC "-//W3C//DTD SVG 1.1//EN" "http://www.w3.org/Graphics/SVG/1.1/DTD/svg11.dtd">
<svg xmlns="http://www.w3.org/2000/svg" viewBox="0 0 1800 1800" width="1800" height="1800">
	<path stroke="#fff" stroke-width="118.5" stroke-linecap="round" stroke-linejoin="round" d="M781.928 414.373c-232.999-.334-484.171 43.651-653.184 166.294 542.017 117.586 1149.821 49.97 1555.82 56.068-47.336-96.476-539.157-221.84-902.636-222.362zM128.746 580.667l752.13 1000.972 803.688-944.904c-275.92-11.737-1008.004 70.547-1555.818-56.068z"/>
	<g fill="#a60000">
		<path d="M149.747 563.963C582.42 284.709 1415.892 452.69 1671.582 613.79c-406-6.1-979.818 67.757-1521.835-49.828z"/>
		<path d="M128.744 580.667l752.132 1000.972 803.688-944.904c-318.293-15.127-1008.005 70.547-1555.82-56.068z"/>
	</g>
	<path fill="#fff" d="M685.328 717.055c-.704 0-1.288.397-1.757 1.195l-75.7 213.657c-.469 1.197.119 1.795 1.762 1.795h43.658c.704 0 1.292-.4 1.761-1.198l32.037-90.968h42.6c.704 0 1.292-.397 1.761-1.195l14.086-38.902c.47-1.196-.118-1.795-1.761-1.795h-41.546l14.082-40.697h44.716c.704 0 1.292-.397 1.761-1.195l14.082-38.901c.47-1.197-.118-1.796-1.761-1.796zm124.5 0c-.705 0-1.292.397-1.762 1.195l-75.695 213.657c-.47 1.197.118 1.795 1.761 1.795h43.655c.704 0 1.291-.4 1.76-1.198l75.7-213.653c.47-1.197-.118-1.796-1.761-1.796zm70.793 0c-.704 0-1.288.397-1.757 1.195l-75.7 213.657c-.469 1.197.119 1.795 1.762 1.795h89.78c.705 0 1.292-.4 1.762-1.198l13.73-38.9c.47-1.198-.118-1.796-1.761-1.796h-43.658L926.04 718.85c.47-1.197-.118-1.796-1.761-1.796zm93.242 0c-.704 0-1.292.397-1.761 1.195l-14.082 38.902c-.47 1.197.115 1.795 1.758 1.795h29.928l-60.91 172.96c-.47 1.197.117 1.795 1.76 1.795h43.659c.704 0 1.291-.4 1.76-1.198l61.263-173.557h30.982c.705 0 1.292-.397 1.762-1.195l14.081-38.901c.47-1.197-.118-1.796-1.761-1.796zm122.681 0c-.704 0-1.288.397-1.757 1.195l-75.7 213.657c-.469 1.197.119 1.795 1.762 1.795h89.78c.705 0 1.292-.4 1.762-1.198l13.73-38.9c.47-1.198-.118-1.796-1.761-1.796H1080.7l17.604-50.272h42.6c.704 0 1.292-.397 1.761-1.195l14.086-38.902c.47-1.196-.118-1.795-1.761-1.795h-41.546l14.082-40.697h44.716c.704 0 1.292-.397 1.761-1.195l14.082-38.901c.47-1.197-.118-1.796-1.761-1.796zm100.504 0c-.704 0-1.291.397-1.76 1.195L1129.8 931.907c-.47 1.197.118 1.795 1.76 1.795h43.66c.703 0 1.29-.4 1.76-1.198l53.515-173.557H1240c4.929 0 7.396 1.796 7.396 5.387 0 2.992-1.058 7.88-3.171 14.663-2.817 8.777-5.517 14.462-8.099 17.056-2.347 2.394-5.515 3.59-9.505 3.59-1.173 0-1.761.401-1.761 1.2l-9.856 38.897c-.47 1.197-.002 1.796 1.405 1.796 4.93.399 7.397 2.294 7.397 5.685 0 1.396-.117 2.494-.352 3.292l-21.829 72.715.351-.299c-.469.998-.823 1.795-1.058 2.393v5.088c0 .798.238 1.595.707 2.393.235.599.822.9 1.761.9h43.655c1.643 0 2.23-.698 1.76-2.095-.469-1.197-.702-2.096-.702-2.695 0-1.596.35-3.788 1.054-6.581.704-2.993 1.996-7.381 3.874-13.166l14.085-46.383c2.817-8.977 4.222-16.358 4.222-22.144 0-10.573-4.46-17.356-13.379-20.348 4.46-1.197 8.452-2.993 11.973-5.387 3.52-2.393 6.455-5.086 8.802-8.078 2.582-2.992 4.695-6.084 6.338-9.276 1.643-3.392 2.93-6.583 3.87-9.575l7.747-25.437c1.174-3.59 1.995-6.881 2.464-9.874.704-3.191 1.059-6.184 1.059-8.977 0-10.174-3.993-17.156-11.973-20.946-7.98-3.79-19.717-5.686-35.208-5.686zM738.846 970.26c-20.185 0-36.147 4.091-47.883 12.27-11.501 7.98-20.303 21.047-26.406 39.2l-42.955 121.49c-3.521 9.576-5.28 17.754-5.28 24.537 0 9.576 3.522 16.557 10.563 20.946 7.042 4.389 18.19 6.585 33.447 6.585h4.225c.704 0 1.409-.1 2.113-.299h2.112c.705 0 1.292-.4 1.761-1.198l13.028-40.398c.234-.798-.002-1.294-.707-1.494-.47-.399-1.057-.399-1.761 0-2.347.998-4.694 1.494-7.041 1.494-4.225 0-6.338-1.594-6.338-4.786 0-1.596.588-4.39 1.761-8.38l40.492-114.308c1.877-5.386 3.986-8.978 6.334-10.773 2.581-1.995 5.515-2.99 8.802-2.99 1.877 0 3.523.499 4.932 1.496 1.408.798 2.112 1.995 2.112 3.591 0 .2-.237 1.096-.707 2.692l-10.914 32.018c-.47 1.197.118 1.795 1.761 1.795h43.658c.704 0 1.292-.4 1.761-1.198l10.564-30.222c3.286-9.576 4.928-17.556 4.928-23.94 0-9.775-3.639-16.855-10.915-21.244-7.041-4.588-18.19-6.884-33.447-6.884zm73.698 4.192c-.704 0-1.288.397-1.758 1.195l-75.699 213.657c-.47 1.197.118 1.795 1.761 1.795h89.781c.704 0 1.292-.4 1.761-1.198L842.12 1151c.47-1.197-.118-1.796-1.76-1.796H796.7l61.263-172.956c.47-1.197-.118-1.796-1.761-1.796zm102.395 0c-.704 0-1.292.397-1.761 1.195l-59.15 167.573c-1.878 5.187-3.286 9.873-4.225 14.063-.939 4.189-1.406 7.982-1.406 11.374 0 10.373 3.872 17.355 11.618 20.945 7.98 3.79 19.366 5.686 34.153 5.686 9.623 0 18.305-.8 26.05-2.397 7.746-1.396 14.673-3.989 20.775-7.78 6.103-3.989 11.5-9.274 16.195-15.857 4.694-6.783 8.92-15.262 12.675-25.436l59.15-167.57c.47-1.197-.118-1.796-1.761-1.796h-43.659c-.704 0-1.291.397-1.76 1.195l-57.034 160.988c-2.582 6.983-5.049 11.573-7.396 13.767-2.347 1.995-5.515 2.99-9.505 2.99-2.582 0-4.461-.297-5.635-.895-1.173-.599-1.76-1.895-1.76-3.89 0-2.195.94-5.985 2.818-11.37l57.037-160.99c.47-1.196-.118-1.795-1.76-1.795zm135.532 0c-.704 0-1.288.397-1.757 1.195l-13.734 38.304c-.47 1.197.118 1.795 1.761 1.795h28.87c7.042 0 12.205.1 15.491.3 3.521 0 5.75.098 6.69.298H1091.314c2.582 0 4.34.4 5.28 1.198 1.173.598 1.76 1.994 1.76 4.188v2.692c0 .798-.233 1.797-.702 2.994v1.198c.235.399.351.796.351 1.195 0 2.194-1.175 4.49-3.522 6.883-1.408 4.389-2.817 7.881-4.225 10.475-1.174 2.593-2.462 4.687-3.87 6.283-1.408 1.396-2.934 2.395-4.577 2.993-1.643.4-3.522.598-5.635.598l-57.388-.3c-.704 0-1.292.398-1.761 1.196l-44.01 131.367c-.47 1.197.118 1.795 1.761 1.795h65.136c17.604 0 31.449-3.69 41.542-11.072 10.093-7.58 17.84-18.851 23.239-33.813l11.617-32.021c1.174-3.392 1.995-6.381 2.464-8.975.705-2.793 1.059-5.488 1.059-8.081 0-10.174-5.047-16.756-15.14-19.748 10.562-3.79 18.66-9.178 24.293-16.16 5.868-7.181 10.094-14.762 12.676-22.741l6.689-18.553c1.174-3.79 2.111-7.283 2.816-10.475.704-3.191 1.058-6.284 1.058-9.276 0-8.578-3.055-14.961-9.157-19.15-6.103-4.39-15.726-6.582-28.87-6.582zm1.762 124.48h8.801c3.287 0 5.633.301 7.041.9 1.643.598 2.464 1.994 2.464 4.188 0 1.796-.467 4.29-1.406 7.481-.704 3.192-1.879 7.283-3.522 12.27v-.302c-2.112 5.785-3.988 10.376-5.63 13.767-1.644 3.391-3.29 5.984-4.933 7.78-1.643 1.795-3.519 2.992-5.631 3.59-1.878.4-4.224.598-7.04.598h-7.748z"/>
</svg>
