<svg id="RC" xmlns="http://www.w3.org/2000/svg" viewBox="0 0 400 400"><defs><style>.cls-3{fill:#f2d9d9}.cls-4{fill:#fdfafa}</style></defs><g id="_70_fok" data-name="70 fok"><g id="Cone"><path d="M337.5 122.79l-17.92 28.22L205.5 330.67h-11L80.42 151.05 62.5 122.83q2.05-1.1 4.15-2.14l.57-.29a.91.91 0 0 1 .14-.07c1.73-.87 3.46-1.72 5.21-2.55.53-.25 1.05-.5 1.59-.74l.4-.19c.49-.24 1-.47 1.49-.69a2.87 2.87 0 0 1 .4-.18q9 4.13 18.35 7.65 3.17 1.2 6.36 2.31a298.4 298.4 0 0 0 99 16.7A298.39 298.39 0 0 0 298.92 126a141.15 141.15 0 0 0-68.54-35.13A293.75 293.75 0 0 1 323.71 116q4.59 2.1 9.07 4.36l.57.29q2.1 1.05 4.15 2.14z" fill="#a00"/><path d="M298.92 126a298.39 298.39 0 0 1-98.77 16.62 298.4 298.4 0 0 1-99-16.7c.07-.06.13-.13.2-.18l1.3-1.21.72-.65 1.27-1.12c.59-.53 1.19-1 1.79-1.54q1.91-1.62 3.88-3.16c.69-.55 1.4-1.09 2.11-1.62s1.34-1 2-1.49l.34-.24c.66-.47 1.31-.94 2-1.39s1.28-.88 1.92-1.31l.57-.38c.66-.43 1.31-.86 2-1.28s1.46-.93 2.2-1.38 1.59-1 2.4-1.43 1.45-.84 2.19-1.25l.46-.25c.69-.39 1.38-.77 2.08-1.14l2.41-1.25c.66-.34 1.32-.67 2-1q.69-.35 1.38-.66l.59-.29 1.54-.71c.69-.32 1.39-.63 2.09-.93l1.84-.79c1-.43 2-.85 3.08-1.25.82-.33 1.66-.65 2.49-1q2.94-1.1 5.95-2.06l2.05-.65 2.36-.71.65-.18 1.8-.5.92-.25 2.4-.6c.91-.23 1.83-.44 2.75-.65s1.85-.41 2.78-.6q15-1.5 30.37-1.51t30.38 1.51A141.15 141.15 0 0 1 298.92 126z" fill="#d47f7f"/><path class="cls-3" d="M169.63 90.85c-.93.19-1.86.39-2.78.6s-1.84.42-2.75.65l-2.4.6-.92.25-1.8.5-.65.18-2.36.71-2.05.65q-3 1-5.95 2.06c-.83.31-1.67.63-2.49 1-1 .4-2.06.82-3.08 1.25l-1.84.79c-.7.3-1.4.61-2.09.93l-1.54.71-.59.29q-.69.31-1.38.66c-.67.32-1.33.65-2 1l-2.41 1.25c-.7.37-1.39.75-2.08 1.14l-.46.25c-.74.41-1.47.83-2.19 1.25s-1.6 1-2.4 1.43-1.47.91-2.2 1.38-1.32.85-2 1.28l-.57.38c-.64.43-1.29.86-1.92 1.31s-1.32.92-2 1.39l-.34.24c-.67.49-1.35 1-2 1.49s-1.42 1.07-2.11 1.62q-2 1.54-3.88 3.16c-.6.5-1.2 1-1.79 1.54-.43.36-.85.74-1.27 1.12l-.72.65-1.3 1.21c-.07 0-.13.12-.2.18q-3.19-1.11-6.36-2.31-9.35-3.53-18.35-7.65a293.46 293.46 0 0 1 93.22-25.14z"/><path id="keret" class="cls-3" d="M200 89.33q15.41 0 30.38 1.52A294 294 0 0 1 323.71 116c3.06 1.4 6.08 2.87 9.07 4.37l.57.28c1.39.71 2.77 1.41 4.14 2.15l-17.92 28.22L205.5 330.67h-11L80.42 151.05 62.5 122.83c1.37-.74 2.75-1.44 4.15-2.15l.57-.28a.46.46 0 0 1 .14-.07c3-1.5 6-3 9.09-4.36a293.71 293.71 0 0 1 93.18-25.08q15-1.5 30.37-1.52zm0-11.25c-10.53 0-21.12.53-31.49 1.57a303.92 303.92 0 0 0-96.72 26.05c-2.86 1.29-5.9 2.74-9.28 4.43l-.49.24-.5.26c-1.51.76-2.93 1.49-4.31 2.23l-6 3.17v10l1.75 2.8 17.92 28.22L185 336.7l3.32 5.22h23.36l3.32-5.22 114.08-179.62L347 128.86l1.75-2.76v-10l-4.75-2.57v-.11l-4.78-2.42-.73-.37-.38-.19h-.1l-7.31-3.85-.2.2-2.11-1a304.46 304.46 0 0 0-96.89-26.14c-10.37-1-21-1.57-31.5-1.57z"/></g><g id="Filter"><path class="cls-4" d="M202.25 163.91l8.13-.57c.15 0 .21 0 .18.14l-.88 3.41a.16.16 0 0 1-.15.11l-4 .29-.87 3.56 3.77-.27c.14 0 .2 0 .17.14l-.88 3.41a.16.16 0 0 1-.14.11l-3.86.27-2 8a.19.19 0 0 1-.14.12l-4 .27c-.14 0-.2 0-.17-.14l4.68-18.7a.16.16 0 0 1 .16-.15zM207.89 182l4.68-18.7a.18.18 0 0 1 .15-.11l3.95-.28c.15 0 .21 0 .18.14l-4.68 18.7a.16.16 0 0 1-.15.11l-4 .28c-.1 0-.16-.05-.13-.14zM215.24 181.41l4.5-18.62a.17.17 0 0 1 .14-.11l3.79-.26c.14 0 .2 0 .17.13l-3.59 14.7L224 177c.15 0 .2.08.17.18l-.86 3.73a.19.19 0 0 1-.14.11l-7.8.54c-.1-.01-.16-.05-.13-.15zM226.2 165.84c-.14 0-.2 0-.17-.14l.88-3.41a.16.16 0 0 1 .14-.11l9.82-.69c.15 0 .21 0 .18.14l-.88 3.41a.16.16 0 0 1-.15.11l-2.8.2-3.78 15.18a.22.22 0 0 1-.15.12l-3.95.27c-.15 0-.21 0-.18-.14l3.75-15.13zM238.53 161.37l8.13-.56c.15 0 .21 0 .18.14l-.88 3.4a.22.22 0 0 1-.15.12l-4.05.28-.86 3.56 3.76-.26c.15 0 .21 0 .18.14l-.88 3.4a.18.18 0 0 1-.15.12L240 172l-1.09 4.39 4-.27c.14 0 .2 0 .17.14l-.84 3.4a.19.19 0 0 1-.15.12l-8.13.57q-.23 0-.18-.15l4.68-18.69a.22.22 0 0 1 .07-.14zM249.05 179.16a.22.22 0 0 1-.15.12l-4 .27c-.15 0-.21 0-.18-.14l3.76-18.63a.19.19 0 0 1 .14-.12l5.07-.35a8.36 8.36 0 0 1 3.25.26 1.89 1.89 0 0 1 1.29 1.71 3.2 3.2 0 0 1 0 .76 5.92 5.92 0 0 1-.13.87l-.44 2.22a5.22 5.22 0 0 1-.26.83 4.32 4.32 0 0 1-.46.84 3.42 3.42 0 0 1-1.76 1.28 1.75 1.75 0 0 1 1.42 1.65 6.29 6.29 0 0 1-.16 1.92l-.8 4c-.11.51-.19.88-.22 1.14a2 2 0 0 0 0 .58 1 1 0 0 0 .09.22c.06.12 0 .18-.14.19l-4 .28a.18.18 0 0 1-.17-.07.4.4 0 0 1-.09-.2v-.25a1.07 1.07 0 0 1 0-.18.76.76 0 0 1 .05-.21l1.23-6.34a.92.92 0 0 0 0-.29c0-.29-.28-.43-.73-.43-.12 0-.17 0-.14-.15l.49-3.38c0-.07.05-.1.15-.11a1.19 1.19 0 0 0 .84-.38 3.81 3.81 0 0 0 .55-1.49 4.56 4.56 0 0 0 .13-1.27q0-.47-.72-.42l-.86.06z"/></g><g id="Club"><path class="cls-3" d="M201.12 186.5c-1.18-.6-2.73-.6-5.28-.42a21.5 21.5 0 0 0-4 .59 11 11 0 0 0-3.31 1.42 8 8 0 0 0-2.19 2.45 15.13 15.13 0 0 0-1.48 3.78l-4.31 18a16.66 16.66 0 0 0-.4 2.08 6.45 6.45 0 0 0 0 1.65 3.51 3.51 0 0 0 2.49 2.89 13.89 13.89 0 0 0 5.32.42 22 22 0 0 0 3.95-.59 8.53 8.53 0 0 0 3-1.39 8.18 8.18 0 0 0 2.19-2.46 14.19 14.19 0 0 0 1.48-3.78l.93-3.81h-.06c.14-.59.28-1.17.43-1.76l-7.23.51-.42 1.75-.9 3.64a2.66 2.66 0 0 1-.71 1.26 2.25 2.25 0 0 1-1.37.43c-.84.06-1.25-.13-1.31-.56a1.09 1.09 0 0 1 0-.29 4.31 4.31 0 0 1 .12-.49l4.32-17.89a2 2 0 0 1 2.08-1.67c.82 0 1.23.14 1.29.62a1.84 1.84 0 0 1-.08.73c-.46 1.89-.91 3.77-1.37 5.66l7.25-.51 1.38-5.61c.82-2.93.19-5.63-1.81-6.65zM200.27 218.23l7.94-32.84a.29.29 0 0 1 .24-.2l6.69-.46c.25 0 .36.06.31.24l-6.34 25.93 6.7-.47c.25 0 .35.14.29.32l-1.52 6.57a.3.3 0 0 1-.25.19l-13.76 1q-.37-.01-.3-.28zM260.38 182.63a8.44 8.44 0 0 0-4.54-.61l-13.78 1-6.69.47a.3.3 0 0 0-.25.19l-5.82 24.3a4.68 4.68 0 0 1-.88 2 2 2 0 0 1-1.4.56 2.21 2.21 0 0 1-.88-.07.59.59 0 0 1-.34-.54 5.43 5.43 0 0 1 .22-1.67l5.82-24.3q.07-.27-.3-.24l-6.69.47a.28.28 0 0 0-.25.19l-6 25.27a16.7 16.7 0 0 0-.39 2.07 7.65 7.65 0 0 0 0 1.66 3.23 3.23 0 0 0 2.2 2.91 13.6 13.6 0 0 0 5.31.44 23.68 23.68 0 0 0 4-.6 9 9 0 0 0 3-1.39 8.17 8.17 0 0 0 2.19-2.46 15.14 15.14 0 0 0 1.47-3.79l4.55-19 6.85-.47-6.85.47 6.85-.47 1.35-.1c1.08-.07 1.88-.12 2.41-.14h1.55a1.78 1.78 0 0 1 .85.1.74.74 0 0 1 .33.6c0 .12-.94 3.35-1 3.49a1.53 1.53 0 0 1-.64.48 3 3 0 0 1-.85.17l-8.8.57a.29.29 0 0 0-.25.19l-5 21.26q-.08.26.3.24l10.24-.72a11.19 11.19 0 0 0 6.31-2.69 9.38 9.38 0 0 0 2.94-5.1l1.18-4.74a10.2 10.2 0 0 0 .24-1.35 5.51 5.51 0 0 0 0-1.15 3 3 0 0 0-2.69-2.69 7.75 7.75 0 0 0 3.45-2.61 9.44 9.44 0 0 0 1.49-3.39l.68-2.75c.11-.56.19-1.07.24-1.54a5.53 5.53 0 0 0 0-1.35 4.17 4.17 0 0 0-1.73-3.17zm-8 19.76c-.06.47-.18 1.07-.34 1.81a20 20 0 0 1-.61 2 4.42 4.42 0 0 1-.61 1.18 1.59 1.59 0 0 1-.78.52 4.27 4.27 0 0 1-1.09.22l-2.71.19 1.76-7.44 2.88-.2a3.37 3.37 0 0 1 1.12.05.6.6 0 0 1 .43.58 4.32 4.32 0 0 1-.09 1.09z"/></g></g></svg>
