<?xml version="1.0" encoding="UTF-8" standalone="no"?>
<!-- Created with Inkscape (http://www.inkscape.org/) -->

<svg
   xmlns:dc="http://purl.org/dc/elements/1.1/"
   xmlns:cc="http://creativecommons.org/ns#"
   xmlns:rdf="http://www.w3.org/1999/02/22-rdf-syntax-ns#"
   xmlns:svg="http://www.w3.org/2000/svg"
   xmlns="http://www.w3.org/2000/svg"
   xmlns:sodipodi="http://sodipodi.sourceforge.net/DTD/sodipodi-0.dtd"
   xmlns:inkscape="http://www.inkscape.org/namespaces/inkscape"
   id="svg3422"
   version="1.1"
   inkscape:version="0.92.2 5c3e80d, 2017-08-06"
   width="1800"
   height="1800"
   viewBox="0 0 1800 1800"
   sodipodi:docname="filterclub-logo-sticker.svg"
   inkscape:export-filename="/Users/fnemeth/Documents/specialty.hu/filterclub-logo-plain.png"
   inkscape:export-xdpi="36.900902"
   inkscape:export-ydpi="36.900902">
  <title
     id="title5667">First filterclub.hu sticker</title>
  <metadata
     id="metadata3428">
    <rdf:RDF>
      <cc:Work
         rdf:about="">
        <dc:format>image/svg+xml</dc:format>
        <dc:type
           rdf:resource="http://purl.org/dc/dcmitype/StillImage" />
        <dc:title>First filterclub.hu sticker</dc:title>
        <dc:creator>
          <cc:Agent>
            <dc:title>Ferenc Nemeth</dc:title>
          </cc:Agent>
        </dc:creator>
        <dc:subject>
          <rdf:Bag>
            <rdf:li>filterclub</rdf:li>
          </rdf:Bag>
        </dc:subject>
        <dc:date>08.05.2018</dc:date>
        <cc:license
           rdf:resource="http://creativecommons.org/licenses/by/4.0/" />
      </cc:Work>
      <cc:License
         rdf:about="http://creativecommons.org/licenses/by/4.0/">
        <cc:permits
           rdf:resource="http://creativecommons.org/ns#Reproduction" />
        <cc:permits
           rdf:resource="http://creativecommons.org/ns#Distribution" />
        <cc:requires
           rdf:resource="http://creativecommons.org/ns#Notice" />
        <cc:requires
           rdf:resource="http://creativecommons.org/ns#Attribution" />
        <cc:permits
           rdf:resource="http://creativecommons.org/ns#DerivativeWorks" />
      </cc:License>
    </rdf:RDF>
  </metadata>
  <defs
     id="defs3426">
    <inkscape:path-effect
       effect="fill_between_many"
       id="path-effect5594"
       is_visible="true"
       linkedpaths="" />
  </defs>
  <sodipodi:namedview
     pagecolor="#ffffff"
     bordercolor="#666666"
     borderopacity="1"
     objecttolerance="10"
     gridtolerance="10"
     guidetolerance="10"
     inkscape:pageopacity="0"
     inkscape:pageshadow="2"
     inkscape:window-width="1097"
     inkscape:window-height="756"
     id="namedview3424"
     showgrid="false"
     inkscape:zoom="0.26"
     inkscape:cx="930.89186"
     inkscape:cy="1121.8362"
     inkscape:window-x="28"
     inkscape:window-y="0"
     inkscape:window-maximized="0"
     inkscape:current-layer="layer1" />
  <rect
     style="opacity:1;fill:none;fill-opacity:1;fill-rule:evenodd;stroke:none;stroke-width:20.39999962;stroke-miterlimit:4;stroke-dasharray:none;stroke-opacity:1"
     id="rect4553"
     width="1625"
     height="1435"
     x="108.07692"
     y="285"
     inkscape:export-xdpi="90"
     inkscape:export-ydpi="90" />
  <path
     style="fill:#a0a0a0;stroke:none;stroke-width:1px;stroke-linecap:butt;stroke-linejoin:miter;stroke-opacity:1"
     d=""
     id="path3436"
     inkscape:connector-curvature="0" />
  <path
     style="fill:#a0a0a0;stroke:none;stroke-width:1px;stroke-linecap:butt;stroke-linejoin:miter;stroke-opacity:1"
     d=""
     id="path3438"
     inkscape:connector-curvature="0" />
  <path
     style="fill:#a0a0a0;stroke:none;stroke-width:1px;stroke-linecap:butt;stroke-linejoin:miter;stroke-opacity:1"
     d=""
     id="path3440"
     inkscape:connector-curvature="0" />
  <path
     style="fill:#a0a0a0;stroke:none;stroke-width:1px;stroke-linecap:butt;stroke-linejoin:miter;stroke-opacity:1"
     d=""
     id="path3442"
     inkscape:connector-curvature="0" />
  <g
     inkscape:groupmode="layer"
     id="layer2"
     inkscape:label="Cut"
     style="display:inline"
     sodipodi:insensitive="true">
    <path
       style="opacity:1;fill:#ffffff;fill-opacity:1;fill-rule:evenodd;stroke:#ffffff;stroke-width:118.5;stroke-linecap:round;stroke-linejoin:round;stroke-miterlimit:4;stroke-dasharray:none;stroke-opacity:0.969697;paint-order:markers fill stroke"
       d="M 781.92848,414.37305 C 548.92941,414.03868 297.75653,458.02424 128.74437,580.66702 670.76095,698.25276 1278.565,630.63637 1684.564,636.73542 1637.2276,540.25941 1145.407,414.89466 781.92848,414.37305 Z M 128.74569,580.66706 880.87575,1581.6387 1684.564,636.73542 C 1408.6439,624.99761 676.56024,707.28159 128.74569,580.66706 Z"
       id="path5578"
       inkscape:connector-curvature="0"
       sodipodi:nodetypes="sccscccc" />
  </g>
  <g
     inkscape:groupmode="layer"
     id="layer1"
     inkscape:label="Logo"
     style="display:inline"
     sodipodi:insensitive="true">
    <g
       id="g5574"
       style="stroke:none;stroke-opacity:0.969697"
       transform="translate(73.076923,135)">
      <path
         inkscape:export-ydpi="90"
         inkscape:export-xdpi="90"
         sodipodi:nodetypes="cccc"
         inkscape:connector-curvature="0"
         id="path3432"
         d="M 55.667447,445.66702 807.7986,1446.6393 1611.4871,501.73542 C 1293.1941,486.60778 603.482,572.28155 55.667447,445.66702 Z"
         style="fill:#a60000;fill-opacity:1;fill-rule:evenodd;stroke:none;stroke-width:20.39999962;stroke-linecap:butt;stroke-linejoin:miter;stroke-miterlimit:4;stroke-dasharray:none;stroke-opacity:0.969697" />
      <path
         inkscape:export-ydpi="90"
         inkscape:export-xdpi="90"
         sodipodi:nodetypes="ccc"
         inkscape:connector-curvature="0"
         id="path4270"
         d="M 76.670569,428.96253 C 509.34173,149.70886 1342.8153,317.68979 1598.505,478.79079 1192.506,472.69174 618.68716,546.54827 76.670569,428.96253 Z"
         style="opacity:1;fill:#a60000;fill-opacity:1;fill-rule:evenodd;stroke:none;stroke-width:0;stroke-linecap:butt;stroke-linejoin:miter;stroke-miterlimit:4;stroke-dasharray:none;stroke-opacity:0.969697" />
    </g>
    <g
       aria-label="filter
club"
       transform="matrix(1.9559886,0,0,1.662419,-55.926707,-148.09398)"
       style="font-style:normal;font-variant:normal;font-weight:normal;font-stretch:normal;font-size:90px;line-height:125%;font-family:FightThis;-inkscape-font-specification:'FightThis, Normal';text-align:start;letter-spacing:0px;word-spacing:0px;writing-mode:lr-tb;text-anchor:start;fill:#ffffff;fill-opacity:1;stroke:none;stroke-width:1px;stroke-linecap:butt;stroke-linejoin:miter;stroke-opacity:1"
       id="flowRoot4492">
      <path
         sodipodi:type="inkscape:offset"
         inkscape:radius="0"
         inkscape:original="M 378.9668 520.41602 C 378.6068 520.41602 378.30836 520.65477 378.06836 521.13477 L 339.36719 649.65625 C 339.12719 650.37625 339.42758 650.73633 340.26758 650.73633 L 362.58789 650.73633 C 362.94789 650.73633 363.24828 650.49563 363.48828 650.01562 L 379.86719 595.29492 L 401.64648 595.29492 C 402.00648 595.29492 402.30688 595.05617 402.54688 594.57617 L 409.74805 571.17578 C 409.98805 570.45578 409.68766 570.0957 408.84766 570.0957 L 387.60742 570.0957 L 394.80664 545.61523 L 417.66797 545.61523 C 418.02797 545.61523 418.32836 545.37648 418.56836 544.89648 L 425.76758 521.49609 C 426.00758 520.77609 425.70719 520.41602 424.86719 520.41602 L 378.9668 520.41602 z M 442.61719 520.41602 C 442.25719 520.41602 441.9568 520.65477 441.7168 521.13477 L 403.01758 649.65625 C 402.77758 650.37625 403.07797 650.73633 403.91797 650.73633 L 426.23633 650.73633 C 426.59633 650.73633 426.89672 650.49563 427.13672 650.01562 L 465.83789 521.49609 C 466.07789 520.77609 465.7775 520.41602 464.9375 520.41602 L 442.61719 520.41602 z M 478.81055 520.41602 C 478.45055 520.41602 478.15211 520.65477 477.91211 521.13477 L 439.21094 649.65625 C 438.97094 650.37625 439.27133 650.73633 440.11133 650.73633 L 486.01172 650.73633 C 486.37172 650.73633 486.67211 650.49563 486.91211 650.01562 L 493.93164 626.61523 C 494.17164 625.89523 493.87125 625.53516 493.03125 625.53516 L 470.71094 625.53516 L 502.03125 521.49609 C 502.27125 520.77609 501.97086 520.41602 501.13086 520.41602 L 478.81055 520.41602 z M 526.48047 520.41602 C 526.12047 520.41602 525.82008 520.65477 525.58008 521.13477 L 518.38086 544.53516 C 518.14086 545.25516 518.4393 545.61523 519.2793 545.61523 L 534.58008 545.61523 L 503.43945 649.65625 C 503.19945 650.37625 503.49984 650.73633 504.33984 650.73633 L 526.66016 650.73633 C 527.02016 650.73633 527.32055 650.49563 527.56055 650.01562 L 558.88086 545.61523 L 574.7207 545.61523 C 575.0807 545.61523 575.38109 545.37648 575.62109 544.89648 L 582.82031 521.49609 C 583.06031 520.77609 582.75992 520.41602 581.91992 520.41602 L 526.48047 520.41602 z M 589.20117 520.41602 C 588.84117 520.41602 588.54273 520.65477 588.30273 521.13477 L 549.60156 649.65625 C 549.36156 650.37625 549.66195 650.73633 550.50195 650.73633 L 596.40234 650.73633 C 596.76234 650.73633 597.06273 650.49563 597.30273 650.01562 L 604.32227 626.61523 C 604.56227 625.89523 604.26188 625.53516 603.42188 625.53516 L 581.10156 625.53516 L 590.10156 595.29492 L 611.88086 595.29492 C 612.24086 595.29492 612.54125 595.05617 612.78125 594.57617 L 619.98242 571.17578 C 620.22242 570.45578 619.92203 570.0957 619.08203 570.0957 L 597.8418 570.0957 L 605.04102 545.61523 L 627.90234 545.61523 C 628.26234 545.61523 628.56273 545.37648 628.80273 544.89648 L 636.00195 521.49609 C 636.24195 520.77609 635.94156 520.41602 635.10156 520.41602 L 589.20117 520.41602 z M 640.58398 520.41602 C 640.22398 520.41602 639.92359 520.65477 639.68359 521.13477 L 606.20312 649.65625 C 605.96312 650.37625 606.26352 650.73633 607.10352 650.73633 L 629.42383 650.73633 C 629.78383 650.73633 630.08422 650.49562 630.32422 650.01562 L 657.68359 545.61523 L 662.54297 545.61523 C 665.06297 545.61523 666.32422 546.69547 666.32422 548.85547 C 666.32422 550.65547 665.78313 553.59578 664.70312 557.67578 C 663.26313 562.95578 661.8825 566.37555 660.5625 567.93555 C 659.3625 569.37555 657.74313 570.0957 655.70312 570.0957 C 655.10312 570.0957 654.80273 570.33641 654.80273 570.81641 L 649.76367 594.21484 C 649.52367 594.93484 649.76242 595.29492 650.48242 595.29492 C 653.00242 595.53492 654.26367 596.67484 654.26367 598.71484 C 654.26367 599.55484 654.20398 600.21531 654.08398 600.69531 L 642.92383 644.43555 L 643.10352 644.25586 C 642.86352 644.85586 642.6825 645.33531 642.5625 645.69531 L 642.5625 646.95508 L 642.5625 648.75586 C 642.5625 649.23586 642.68383 649.71531 642.92383 650.19531 C 643.04383 650.55531 643.34422 650.73633 643.82422 650.73633 L 666.14258 650.73633 C 666.98258 650.73633 667.28297 650.31656 667.04297 649.47656 C 666.80297 648.75656 666.68359 648.21547 666.68359 647.85547 C 666.68359 646.89547 666.86266 645.57648 667.22266 643.89648 C 667.58266 642.09648 668.24312 639.45656 669.20312 635.97656 L 676.4043 608.07617 C 677.8443 602.67617 678.5625 598.23586 678.5625 594.75586 C 678.5625 588.39586 676.28266 584.31562 671.72266 582.51562 C 674.00266 581.79562 676.04375 580.71539 677.84375 579.27539 C 679.64375 577.83539 681.14375 576.21602 682.34375 574.41602 C 683.66375 572.61602 684.74398 570.75594 685.58398 568.83594 C 686.42398 566.79594 687.0825 564.87617 687.5625 563.07617 L 691.52344 547.77539 C 692.12344 545.61539 692.5432 543.63594 692.7832 541.83594 C 693.1432 539.91594 693.32422 538.11555 693.32422 536.43555 C 693.32422 530.31555 691.28312 526.11594 687.20312 523.83594 C 683.12313 521.55594 677.12313 520.41602 669.20312 520.41602 L 640.58398 520.41602 z M 406.32812 672.72656 C 396.00813 672.72656 387.84766 675.18742 381.84766 680.10742 C 375.96766 684.90742 371.46766 692.7675 368.34766 703.6875 L 346.38672 776.76758 C 344.58672 782.52758 343.6875 787.44734 343.6875 791.52734 C 343.6875 797.28734 345.48789 801.48695 349.08789 804.12695 C 352.68789 806.76695 358.3875 808.08789 366.1875 808.08789 L 368.34766 808.08789 C 368.70766 808.08789 369.06773 808.0282 369.42773 807.9082 L 370.50781 807.9082 C 370.86781 807.9082 371.1682 807.6675 371.4082 807.1875 L 378.06836 782.88672 C 378.18836 782.40672 378.06703 782.10828 377.70703 781.98828 C 377.46703 781.74828 377.16664 781.74828 376.80664 781.98828 C 375.60664 782.58828 374.40703 782.88672 373.20703 782.88672 C 371.04703 782.88672 369.9668 781.92781 369.9668 780.00781 C 369.9668 779.04781 370.26719 777.3668 370.86719 774.9668 L 391.56836 706.20703 C 392.52836 702.96703 393.60664 700.80656 394.80664 699.72656 C 396.12664 698.52656 397.62664 697.92773 399.30664 697.92773 C 400.26664 697.92773 401.10812 698.22812 401.82812 698.82812 C 402.54813 699.30813 402.9082 700.02828 402.9082 700.98828 C 402.9082 701.10828 402.78688 701.64742 402.54688 702.60742 L 396.9668 721.86719 C 396.7268 722.58719 397.02719 722.94727 397.86719 722.94727 L 420.1875 722.94727 C 420.5475 722.94727 420.84789 722.70656 421.08789 722.22656 L 426.48828 704.04688 C 428.16828 698.28688 429.00781 693.48648 429.00781 689.64648 C 429.00781 683.76648 427.14773 679.50719 423.42773 676.86719 C 419.82773 674.10719 414.12813 672.72656 406.32812 672.72656 z M 444.00586 675.24805 C 443.64586 675.24805 443.34742 675.4868 443.10742 675.9668 L 404.40625 804.48828 C 404.16625 805.20828 404.46664 805.56836 405.30664 805.56836 L 451.20703 805.56836 C 451.56703 805.56836 451.86742 805.32766 452.10742 804.84766 L 459.12695 781.44727 C 459.36695 780.72727 459.06656 780.36719 458.22656 780.36719 L 435.90625 780.36719 L 467.22656 676.32812 C 467.46656 675.60812 467.16617 675.24805 466.32617 675.24805 L 444.00586 675.24805 z M 496.35547 675.24805 C 495.99547 675.24805 495.69508 675.4868 495.45508 675.9668 L 465.21484 776.76758 C 464.25484 779.88758 463.53469 782.70656 463.05469 785.22656 C 462.57469 787.74656 462.33594 790.02836 462.33594 792.06836 C 462.33594 798.30836 464.31539 802.50797 468.27539 804.66797 C 472.35539 806.94797 478.17633 808.08789 485.73633 808.08789 C 490.65633 808.08789 495.09469 807.60648 499.05469 806.64648 C 503.01469 805.80648 506.55578 804.2468 509.67578 801.9668 C 512.79578 799.5668 515.55508 796.38773 517.95508 792.42773 C 520.35508 788.34773 522.51555 783.24695 524.43555 777.12695 L 554.67578 676.32812 C 554.91578 675.60812 554.61539 675.24805 553.77539 675.24805 L 531.45508 675.24805 C 531.09508 675.24805 530.79469 675.4868 530.55469 675.9668 L 501.39648 772.80664 C 500.07648 777.00664 498.81523 779.76789 497.61523 781.08789 C 496.41523 782.28789 494.79586 782.88672 492.75586 782.88672 C 491.43586 782.88672 490.475 782.70766 489.875 782.34766 C 489.275 781.98766 488.97461 781.20781 488.97461 780.00781 C 488.97461 778.68781 489.45602 776.40797 490.41602 773.16797 L 519.57617 676.32812 C 519.81617 675.60812 519.51578 675.24805 518.67578 675.24805 L 496.35547 675.24805 z M 565.64648 675.24805 C 565.28648 675.24805 564.98805 675.4868 564.74805 675.9668 L 557.72656 699.00781 C 557.48656 699.72781 557.78695 700.08789 558.62695 700.08789 L 573.38672 700.08789 C 576.98672 700.08789 579.62664 700.14758 581.30664 700.26758 C 583.10664 700.26758 584.24656 700.32727 584.72656 700.44727 L 585.80664 700.44727 L 586.52734 700.44727 C 587.84734 700.44727 588.74656 700.68797 589.22656 701.16797 C 589.82656 701.52797 590.12695 702.3675 590.12695 703.6875 L 590.12695 705.30664 C 590.12695 705.78664 590.00758 706.38742 589.76758 707.10742 L 589.76758 707.82812 C 589.88758 708.06813 589.94727 708.30688 589.94727 708.54688 C 589.94727 709.86688 589.34648 711.2475 588.14648 712.6875 C 587.42648 715.3275 586.70633 717.42828 585.98633 718.98828 C 585.38633 720.54828 584.72781 721.80758 584.00781 722.76758 C 583.28781 723.60758 582.50797 724.20836 581.66797 724.56836 C 580.82797 724.80836 579.86711 724.92773 578.78711 724.92773 L 549.44727 724.74805 C 549.08727 724.74805 548.78687 724.9868 548.54688 725.4668 L 526.04688 804.48828 C 525.80687 805.20828 526.10727 805.56836 526.94727 805.56836 L 560.24805 805.56836 C 569.24805 805.56836 576.32633 803.3482 581.48633 798.9082 C 586.64633 794.3482 590.60719 787.56836 593.36719 778.56836 L 599.30664 759.30664 C 599.90664 757.26664 600.32641 755.4682 600.56641 753.9082 C 600.92641 752.2282 601.10742 750.60688 601.10742 749.04688 C 601.10742 742.92687 598.52719 738.96797 593.36719 737.16797 C 598.76719 734.88797 602.90711 731.64727 605.78711 727.44727 C 608.78711 723.12727 610.94758 718.56758 612.26758 713.76758 L 615.6875 702.60742 C 616.2875 700.32742 616.76695 698.22664 617.12695 696.30664 C 617.48695 694.38664 617.66797 692.52656 617.66797 690.72656 C 617.66797 685.56656 616.10633 681.72703 612.98633 679.20703 C 609.86633 676.56703 604.94656 675.24805 598.22656 675.24805 L 565.64648 675.24805 z M 566.54688 750.12695 L 571.04688 750.12695 C 572.72687 750.12695 573.92648 750.30797 574.64648 750.66797 C 575.48648 751.02797 575.90625 751.8675 575.90625 753.1875 C 575.90625 754.2675 575.6675 755.7675 575.1875 757.6875 C 574.8275 759.6075 574.22672 762.06836 573.38672 765.06836 L 573.38672 764.88672 C 572.30672 768.36672 571.34781 771.12797 570.50781 773.16797 C 569.66781 775.20797 568.82633 776.76766 567.98633 777.84766 C 567.14633 778.92766 566.18742 779.64781 565.10742 780.00781 C 564.14742 780.24781 562.94781 780.36719 561.50781 780.36719 L 557.54688 780.36719 L 566.54688 750.12695 z "
         style="font-style:normal;font-variant:normal;font-weight:normal;font-stretch:normal;font-size:180px;line-height:80.00000119%;font-family:FightThis;-inkscape-font-specification:'FightThis, Normal';text-align:start;writing-mode:lr-tb;text-anchor:start;fill:#ffffff;fill-opacity:1"
         id="path5661"
         d="m 378.9668,520.41602 c -0.36,0 -0.65844,0.23875 -0.89844,0.71875 l -38.70117,128.52148 c -0.24,0.72 0.0604,1.08008 0.90039,1.08008 h 22.32031 c 0.36,0 0.66039,-0.2407 0.90039,-0.72071 l 16.37891,-54.7207 h 21.77929 c 0.36,0 0.6604,-0.23875 0.9004,-0.71875 l 7.20117,-23.40039 c 0.24,-0.72 -0.0604,-1.08008 -0.90039,-1.08008 h -21.24024 l 7.19922,-24.48047 h 22.86133 c 0.36,0 0.66039,-0.23875 0.90039,-0.71875 l 7.19922,-23.40039 c 0.24,-0.72 -0.0604,-1.08007 -0.90039,-1.08007 z m 63.65039,0 c -0.36,0 -0.66039,0.23875 -0.90039,0.71875 l -38.69922,128.52148 c -0.24,0.72 0.0604,1.08008 0.90039,1.08008 h 22.31836 c 0.36,0 0.66039,-0.2407 0.90039,-0.72071 l 38.70117,-128.51953 c 0.24,-0.72 -0.0604,-1.08007 -0.90039,-1.08007 z m 36.19336,0 c -0.36,0 -0.65844,0.23875 -0.89844,0.71875 l -38.70117,128.52148 c -0.24,0.72 0.0604,1.08008 0.90039,1.08008 h 45.90039 c 0.36,0 0.66039,-0.2407 0.90039,-0.72071 l 7.01953,-23.40039 c 0.24,-0.72 -0.0604,-1.08007 -0.90039,-1.08007 h -22.32031 l 31.32031,-104.03907 c 0.24,-0.72 -0.0604,-1.08007 -0.90039,-1.08007 z m 47.66992,0 c -0.36,0 -0.66039,0.23875 -0.90039,0.71875 l -7.19922,23.40039 c -0.24,0.72 0.0584,1.08007 0.89844,1.08007 h 15.30078 l -31.14063,104.04102 c -0.24,0.72 0.0604,1.08008 0.90039,1.08008 h 22.32032 c 0.36,0 0.66039,-0.2407 0.90039,-0.72071 l 31.32031,-104.40039 h 15.83984 c 0.36,0 0.66039,-0.23875 0.90039,-0.71875 l 7.19922,-23.40039 c 0.24,-0.72 -0.0604,-1.08007 -0.90039,-1.08007 z m 62.7207,0 c -0.36,0 -0.65844,0.23875 -0.89844,0.71875 l -38.70117,128.52148 c -0.24,0.72 0.0604,1.08008 0.90039,1.08008 h 45.90039 c 0.36,0 0.66039,-0.2407 0.90039,-0.72071 l 7.01954,-23.40039 c 0.24,-0.72 -0.0604,-1.08007 -0.90039,-1.08007 h -22.32032 l 9,-30.24024 h 21.7793 c 0.36,0 0.66039,-0.23875 0.90039,-0.71875 l 7.20117,-23.40039 c 0.24,-0.72 -0.0604,-1.08008 -0.90039,-1.08008 H 597.8418 l 7.19922,-24.48047 h 22.86132 c 0.36,0 0.66039,-0.23875 0.90039,-0.71875 l 7.19922,-23.40039 c 0.24,-0.72 -0.0604,-1.08007 -0.90039,-1.08007 z m 51.38281,0 c -0.36,0 -0.66039,0.23875 -0.90039,0.71875 l -33.48047,128.52148 c -0.24,0.72 0.0604,1.08008 0.9004,1.08008 h 22.32031 c 0.36,0 0.66039,-0.24071 0.90039,-0.72071 l 27.35937,-104.40039 h 4.85938 c 2.52,0 3.78125,1.08024 3.78125,3.24024 0,1.8 -0.54109,4.74031 -1.6211,8.82031 -1.43999,5.28 -2.82062,8.69977 -4.14062,10.25977 -1.2,1.44 -2.81937,2.16015 -4.85938,2.16015 -0.6,0 -0.90039,0.24071 -0.90039,0.72071 l -5.03906,23.39843 c -0.24,0.72 -0.001,1.08008 0.71875,1.08008 2.52,0.24 3.78125,1.37992 3.78125,3.41992 0,0.84 -0.0597,1.50047 -0.17969,1.98047 l -11.16015,43.74024 0.17969,-0.17969 c -0.24,0.6 -0.42102,1.07945 -0.54102,1.43945 v 1.25977 1.80078 c 0,0.48 0.12133,0.95945 0.36133,1.43945 0.12,0.36 0.42039,0.54102 0.90039,0.54102 h 22.31836 c 0.84,0 1.14039,-0.41977 0.90039,-1.25977 -0.24,-0.72 -0.35938,-1.26109 -0.35938,-1.62109 0,-0.96 0.17907,-2.27899 0.53907,-3.95899 0.36,-1.8 1.02046,-4.43992 1.98046,-7.91992 l 7.20118,-27.90039 c 1.44,-5.4 2.1582,-9.84031 2.1582,-13.32031 0,-6.36 -2.27984,-10.44024 -6.83984,-12.24024 2.28,-0.72 4.32109,-1.80023 6.12109,-3.24023 1.8,-1.44 3.3,-3.05937 4.5,-4.85937 1.32,-1.8 2.40023,-3.66008 3.24023,-5.58008 0.84,-2.04 1.49852,-3.95977 1.97852,-5.75977 l 3.96094,-15.30078 c 0.6,-2.16 1.01976,-4.13945 1.25976,-5.93945 0.36,-1.92 0.54102,-3.72039 0.54102,-5.40039 0,-6.12 -2.0411,-10.31961 -6.1211,-12.59961 -4.07999,-2.28 -10.07999,-3.41992 -18,-3.41992 z M 406.32812,672.72656 c -10.31999,0 -18.48046,2.46086 -24.48046,7.38086 -5.88,4.8 -10.38,12.66008 -13.5,23.58008 l -21.96094,73.08008 c -1.8,5.76 -2.69922,10.67976 -2.69922,14.75976 0,5.76 1.80039,9.95961 5.40039,12.59961 3.6,2.64 9.29961,3.96094 17.09961,3.96094 h 2.16016 c 0.36,0 0.72007,-0.0597 1.08007,-0.17969 h 1.08008 c 0.36,0 0.66039,-0.2407 0.90039,-0.7207 l 6.66016,-24.30078 c 0.12,-0.48 -0.001,-0.77844 -0.36133,-0.89844 -0.24,-0.24 -0.54039,-0.24 -0.90039,0 -1.2,0.6 -2.39961,0.89844 -3.59961,0.89844 -2.16,0 -3.24023,-0.95891 -3.24023,-2.87891 0,-0.96 0.30039,-2.64101 0.90039,-5.04101 l 20.70117,-68.75977 c 0.96,-3.24 2.03828,-5.40047 3.23828,-6.48047 1.32,-1.2 2.82,-1.79883 4.5,-1.79883 0.96,0 1.80148,0.30039 2.52148,0.90039 0.72001,0.48001 1.08008,1.20016 1.08008,2.16016 0,0.12 -0.12132,0.65914 -0.36132,1.61914 l -5.58008,19.25977 c -0.24,0.72 0.0604,1.08008 0.90039,1.08008 h 22.32031 c 0.36,0 0.66039,-0.24071 0.90039,-0.72071 l 5.40039,-18.17968 c 1.68,-5.76 2.51953,-10.5604 2.51953,-14.4004 0,-5.88 -1.86008,-10.13929 -5.58008,-12.77929 -3.6,-2.76 -9.2996,-4.14063 -17.09961,-4.14063 z m 37.67774,2.52149 c -0.36,0 -0.65844,0.23875 -0.89844,0.71875 l -38.70117,128.52148 c -0.24,0.72 0.0604,1.08008 0.90039,1.08008 h 45.90039 c 0.36,0 0.66039,-0.2407 0.90039,-0.7207 l 7.01953,-23.40039 c 0.24,-0.72 -0.0604,-1.08008 -0.90039,-1.08008 h -22.32031 l 31.32031,-104.03907 c 0.24,-0.72 -0.0604,-1.08007 -0.90039,-1.08007 z m 52.34961,0 c -0.36,0 -0.66039,0.23875 -0.90039,0.71875 l -30.24024,100.80078 c -0.96,3.12 -1.68015,5.93898 -2.16015,8.45898 -0.48,2.52 -0.71875,4.8018 -0.71875,6.8418 0,6.24 1.97945,10.43961 5.93945,12.59961 4.08,2.28 9.90094,3.41992 17.46094,3.41992 4.92,0 9.35836,-0.48141 13.31836,-1.44141 3.96,-0.84 7.50109,-2.39968 10.62109,-4.67968 3.12,-2.4 5.8793,-5.57907 8.2793,-9.53907 2.4,-4.08 4.56047,-9.18078 6.48047,-15.30078 l 30.24023,-100.79883 c 0.24,-0.72 -0.0604,-1.08007 -0.90039,-1.08007 h -22.32031 c -0.36,0 -0.66039,0.23875 -0.90039,0.71875 l -29.15821,96.83984 c -1.32,4.2 -2.58125,6.96125 -3.78125,8.28125 -1.2,1.2 -2.81937,1.79883 -4.85937,1.79883 -1.32,0 -2.28086,-0.17906 -2.88086,-0.53906 -0.6,-0.36 -0.90039,-1.13985 -0.90039,-2.33985 0,-1.32 0.48141,-3.59984 1.44141,-6.83984 l 29.16015,-96.83985 c 0.24,-0.72 -0.0604,-1.08007 -0.90039,-1.08007 z m 69.29101,0 c -0.36,0 -0.65843,0.23875 -0.89843,0.71875 l -7.02149,23.04101 c -0.24,0.72 0.0604,1.08008 0.90039,1.08008 h 14.75977 c 3.6,0 6.23992,0.0597 7.91992,0.17969 1.8,0 2.93992,0.0597 3.41992,0.17969 h 1.08008 0.7207 c 1.32,0 2.21922,0.2407 2.69922,0.7207 0.6,0.36 0.90039,1.19953 0.90039,2.51953 v 1.61914 c 0,0.48 -0.11937,1.08078 -0.35937,1.80078 v 0.7207 c 0.12,0.24001 0.17969,0.47876 0.17969,0.71876 0,1.32 -0.60079,2.70062 -1.80079,4.14062 -0.72,2.64 -1.44015,4.74078 -2.16015,6.30078 -0.6,1.56 -1.25852,2.8193 -1.97852,3.7793 -0.72,0.84 -1.49984,1.44078 -2.33984,1.80078 -0.84,0.24 -1.80086,0.35937 -2.88086,0.35937 l -29.33984,-0.17968 c -0.36,0 -0.6604,0.23875 -0.90039,0.71875 l -22.5,79.02148 c -0.24001,0.72 0.0604,1.08008 0.90039,1.08008 h 33.30078 c 9,0 16.07828,-2.22016 21.23828,-6.66016 5.16,-4.56 9.12086,-11.33984 11.88086,-20.33984 l 5.93945,-19.26172 c 0.6,-2.04 1.01977,-3.83844 1.25977,-5.39844 0.36,-1.68 0.54101,-3.30132 0.54101,-4.86132 0,-6.12001 -2.58023,-10.07891 -7.74023,-11.87891 5.4,-2.28 9.53992,-5.5207 12.41992,-9.7207 3,-4.32 5.16047,-8.87969 6.48047,-13.67969 l 3.41992,-11.16016 c 0.6,-2.28 1.07945,-4.38078 1.43945,-6.30078 0.36,-1.92 0.54102,-3.78008 0.54102,-5.58008 0,-5.16 -1.56164,-8.99953 -4.68164,-11.51953 -3.12,-2.64 -8.03977,-3.95898 -14.75977,-3.95898 z m 0.9004,74.8789 h 4.5 c 1.67999,0 2.8796,0.18102 3.5996,0.54102 0.84,0.36 1.25977,1.19953 1.25977,2.51953 0,1.08 -0.23875,2.58 -0.71875,4.5 -0.36,1.92 -0.96078,4.38086 -1.80078,7.38086 v -0.18164 c -1.08,3.48 -2.03891,6.24125 -2.87891,8.28125 -0.84,2.04 -1.68148,3.59969 -2.52148,4.67969 -0.84,1.08 -1.79891,1.80015 -2.87891,2.16015 -0.96,0.24 -2.15961,0.35938 -3.59961,0.35938 h -3.96093 z" />
    </g>
  </g>
</svg>
